<mxfile host="app.diagrams.net" modified="2023-06-09T17:00:32.992Z" agent="Mozilla/5.0 (Windows NT 10.0; Win64; x64) AppleWebKit/537.36 (KHTML, like Gecko) Chrome/114.0.0.0 Safari/537.36 Edg/114.0.1823.41" version="21.3.8" etag="MMqg63T5bDrMCzNi_laM" type="github">
  <diagram name="Page-1" id="e5id7w8vKvdXDZPjWcn4">
    <mxGraphModel>
      <root>
        <mxCell id="0" />
        <mxCell id="1" parent="0" />
      </root>
    </mxGraphModel>
  </diagram>
</mxfile>
